#!OML:ASF X:\für Bonn\!DataBase\2005_08_12_Daniel\c3d\Daniel.ASF
:FULLY-SPECIFIED
:DEGREES
17
root 2.87945 17.5925 17.2882 -5.34564 8.74434 -1.44697
lowerback 6.67132 -2.58486 0.196612
upperback 0.19546 -3.4636 -0.9722
thorax -3.60673 -1.73163 -0.776997
lowerneck 0.309702 0.466579 -4.45827
upperneck 10.3474 0.955208 -2.2055
head 3.25956 0.230042 0.0786172
rclavicle 3.8763e-015 1.78906e-014
rhumerus -48.3897 5.67443 -96.0281
rradius 80.9616
rwrist -9.60397
rhand -22.8691 22.798
rfingers 7.12502
rthumb 3.56951 -7.15183
lclavicle 3.8763e-015 1.78906e-014
lhumerus -38.0738 36.2347 67.87
lradius 21.6905
lwrist -33.1508
lhand -10.516 -6.06049
lfingers 7.12502
lthumb 15.4867 23.3392
rfemur 9.98767 18.7439 22.5346
rtibia 12.8384
rfoot -22.2627 -23.6622
rtoes -14.7517
lfemur 0.8371 -17.4405 -18.5268
ltibia 28.3376
lfoot -23.6883 7.75324
ltoes -13.1758
18
root 2.87801 17.5923 17.286 -5.36897 8.88931 -1.43821
lowerback 6.68352 -2.5831 0.153103
upperback 0.188927 -3.4658 -1.00283
thorax -3.61971 -1.73221 -0.783298
lowerneck 0.347707 0.424001 -4.44293
upperneck 10.379 0.890767 -2.1393
head 3.26377 0.20058 0.0956424
rclavicle 3.21783e-015 7.55382e-015
rhumerus -47.3488 5.85372 -96.0121
rradius 82.4057
rwrist -9.37999
rhand -23.1603 22.4989
rfingers 7.12502
rthumb 3.28832 -7.45549
lclavicle 3.21783e-015 7.55382e-015
lhumerus -38.0409 36.138 67.9045
lradius 21.738
lwrist -33.0905
lhand -10.5304 -6.16543
lfingers 7.12502
lthumb 15.4728 23.2354
rfemur 10.0394 18.69 22.5452
rtibia 12.8266
rfoot -22.305 -23.739
rtoes -14.7204
lfemur 0.807941 -17.4817 -18.5227
ltibia 28.3552
lfoot -23.6664 7.6532
ltoes -13.2353
19
root 2.87711 17.5913 17.2854 -5.38807 9.01905 -1.43733
lowerback 6.67256 -2.56927 0.126169
upperback 0.182523 -3.45075 -1.03778
thorax -3.62053 -1.72459 -0.806091
lowerneck 0.39975 0.373937 -4.43077
upperneck 10.4148 0.813753 -2.05138
head 3.2669 0.16554 0.119905
rclavicle 4.07509e-015 -9.93923e-015
rhumerus -46.2136 6.02201 -95.959
rradius 83.8219
rwrist -9.10009
rhand -23.4804 22.219
rfingers 7.12502
rthumb 2.97919 -7.73995
lclavicle 4.07509e-015 -9.93923e-015
lhumerus -37.998 35.9752 67.9578
lradius 21.7701
lwrist -32.9763
lhand -10.5441 -6.27794
lfingers 7.12502
lthumb 15.4596 23.1239
rfemur 10.1004 18.6575 22.5628
rtibia 12.8022
rfoot -22.3768 -23.8063
rtoes -14.6505
lfemur 0.786028 -17.537 -18.5208
ltibia 28.3759
lfoot -23.6478 7.58243
ltoes -13.242
20
root 2.87629 17.5916 17.2844 -5.40045 9.15683 -1.43952
lowerback 6.65712 -2.56089 0.107753
upperback 0.172307 -3.44223 -1.06967
thorax -3.62321 -1.72035 -0.829953
lowerneck 0.47 0.332409 -4.4378
upperneck 10.4436 0.747425 -1.96364
head 3.26419 0.135348 0.147649
rclavicle -5.40197e-014 -3.29983e-014
rhumerus -45.0325 6.25285 -95.8584
rradius 85.2499
rwrist -8.78949
rhand -23.7952 21.9351
rfingers 7.12502
rthumb 2.67519 -8.02786
lclavicle -5.40197e-014 -3.29983e-014
lhumerus -37.981 35.9311 67.9441
lradius 21.7594
lwrist -32.9408
lhand -10.5732 -6.40457
lfingers 7.12502
lthumb 15.4316 22.9994
rfemur 10.1455 18.6487 22.591
rtibia 12.7846
rfoot -22.4399 -23.9204
rtoes -14.619
lfemur 0.752676 -17.5729 -18.5084
ltibia 28.3929
lfoot -23.617 7.48815
ltoes -13.2908
21
root 2.87578 17.5915 17.2831 -5.408 9.29578 -1.42882
lowerback 6.64908 -2.54773 0.0825581
upperback 0.154415 -3.42845 -1.11406
thorax -3.63826 -1.71348 -0.86285
lowerneck 0.533828 0.278948 -4.41465
upperneck 10.4974 0.665525 -1.87663
head 3.27159 0.0979269 0.169611
rclavicle 1.28962e-014 -1.78906e-014
rhumerus -43.8066 6.49771 -95.691
rradius 86.6619
rwrist -8.42785
rhand -24.0826 21.6872
rfingers 7.12502
rthumb 2.39755 -8.27911
lclavicle 1.28962e-014 -1.78906e-014
lhumerus -37.9731 35.9437 67.8707
lradius 21.6967
lwrist -33.0094
lhand -10.636 -6.49804
lfingers 7.12502
lthumb 15.3711 22.9106
rfemur 10.1885 18.6201 22.5992
rtibia 12.77
rfoot -22.5144 -24.0107
rtoes -14.6394
lfemur 0.716842 -17.6312 -18.5128
ltibia 28.4076
lfoot -23.5893 7.41316
ltoes -13.2974
22
root 2.87577 17.5903 17.2821 -5.43281 9.42924 -1.41696
lowerback 6.64974 -2.52845 0.0682335
upperback 0.144594 -3.40579 -1.16306
thorax -3.65059 -1.70241 -0.907261
lowerneck 0.600594 0.226779 -4.39091
upperneck 10.5375 0.585157 -1.794
head 3.27374 0.061488 0.190105
rclavicle -6.75868e-015 -1.59028e-014
rhumerus -42.5364 6.75242 -95.4634
rradius 88.0485
rwrist -8.06668
rhand -24.361 21.509
rfingers 7.12502
rthumb 2.12874 -8.46008
lclavicle -6.75868e-015 -1.59028e-014
lhumerus -37.9749 35.9989 67.7587
lradius 21.6172
lwrist -33.1195
lhand -10.6422 -6.63061
lfingers 7.12502
lthumb 15.3651 22.7785
rfemur 10.2523 18.5668 22.5967
rtibia 12.7484
rfoot -22.5807 -24.0585
rtoes -14.5658
lfemur 0.708015 -17.6975 -18.5325
ltibia 28.4252
lfoot -23.5717 7.35278
ltoes -13.303
